<mxfile host="app.diagrams.net" modified="2024-04-20T15:47:39.435Z" agent="Mozilla/5.0 (Windows NT 10.0; Win64; x64) AppleWebKit/537.36 (KHTML, like Gecko) Chrome/123.0.0.0 Safari/537.36" etag="crNzZvEFrK50-LezGjz1" version="24.2.7" type="google">
  <diagram name="Page-1" id="jLuMr10bHRMjpo3qL8aD">
    <mxGraphModel grid="1" page="1" gridSize="10" guides="1" tooltips="1" connect="1" arrows="1" fold="1" pageScale="1" pageWidth="827" pageHeight="1169" math="0" shadow="0">
      <root>
        <mxCell id="0" />
        <mxCell id="1" parent="0" />
        <mxCell id="07N-WNuUkgZrdGRl9rMo-5" style="edgeStyle=orthogonalEdgeStyle;rounded=0;orthogonalLoop=1;jettySize=auto;html=1;fontSize=14;" edge="1" parent="1">
          <mxGeometry relative="1" as="geometry">
            <mxPoint x="251" y="149.97" as="sourcePoint" />
            <mxPoint x="282.025641025641" y="211.99849002849" as="targetPoint" />
            <Array as="points">
              <mxPoint x="282" y="150" />
            </Array>
          </mxGeometry>
        </mxCell>
        <mxCell id="07N-WNuUkgZrdGRl9rMo-1" value="&lt;font style=&quot;font-size: 14px;&quot;&gt;ADXL&lt;/font&gt;" style="rounded=0;whiteSpace=wrap;html=1;" vertex="1" parent="1">
          <mxGeometry x="160" y="100" width="170" height="70" as="geometry" />
        </mxCell>
        <mxCell id="07N-WNuUkgZrdGRl9rMo-6" value="" style="edgeStyle=orthogonalEdgeStyle;rounded=0;orthogonalLoop=1;jettySize=auto;html=1;fontSize=14;" edge="1" parent="1">
          <mxGeometry relative="1" as="geometry">
            <mxPoint x="324.4987373737373" y="256.02222222222224" as="sourcePoint" />
            <mxPoint x="401" y="256.02222222222224" as="targetPoint" />
            <Array as="points">
              <mxPoint x="381" y="256" />
              <mxPoint x="381" y="256" />
            </Array>
          </mxGeometry>
        </mxCell>
        <mxCell id="zTGeTQ_52CyC5Jfx9P0F-8" style="edgeStyle=orthogonalEdgeStyle;rounded=0;orthogonalLoop=1;jettySize=auto;html=1;entryX=0;entryY=0.5;entryDx=0;entryDy=0;" edge="1" parent="1" source="07N-WNuUkgZrdGRl9rMo-2" target="07N-WNuUkgZrdGRl9rMo-1">
          <mxGeometry relative="1" as="geometry">
            <Array as="points">
              <mxPoint x="283" y="340" />
              <mxPoint x="140" y="340" />
              <mxPoint x="140" y="135" />
            </Array>
          </mxGeometry>
        </mxCell>
        <mxCell id="07N-WNuUkgZrdGRl9rMo-2" value="Tem &amp;gt; X" style="rhombus;whiteSpace=wrap;html=1;fontSize=14;" vertex="1" parent="1">
          <mxGeometry x="235" y="212" width="95" height="88" as="geometry" />
        </mxCell>
        <mxCell id="07N-WNuUkgZrdGRl9rMo-3" value="Call / Text Message to User" style="rounded=0;whiteSpace=wrap;html=1;fontSize=14;" vertex="1" parent="1">
          <mxGeometry x="400" y="223.5" width="170" height="65" as="geometry" />
        </mxCell>
        <mxCell id="07N-WNuUkgZrdGRl9rMo-11" value="Yes" style="text;html=1;align=center;verticalAlign=middle;resizable=0;points=[];autosize=1;strokeColor=none;fillColor=none;fontSize=14;" vertex="1" parent="1">
          <mxGeometry x="335" y="230" width="50" height="30" as="geometry" />
        </mxCell>
        <mxCell id="07N-WNuUkgZrdGRl9rMo-12" value="No" style="text;html=1;align=center;verticalAlign=middle;resizable=0;points=[];autosize=1;strokeColor=none;fillColor=none;" vertex="1" parent="1">
          <mxGeometry x="280" y="306" width="40" height="30" as="geometry" />
        </mxCell>
        <mxCell id="07N-WNuUkgZrdGRl9rMo-13" value="&lt;font style=&quot;font-size: 14px;&quot;&gt;Call / Text Message to User&lt;/font&gt;" style="rounded=0;whiteSpace=wrap;html=1;" vertex="1" parent="1">
          <mxGeometry x="340" y="1040" width="170" height="65" as="geometry" />
        </mxCell>
        <mxCell id="07N-WNuUkgZrdGRl9rMo-14" value="&lt;font style=&quot;font-size: 14px;&quot;&gt;ADXL&lt;/font&gt;" style="rounded=0;whiteSpace=wrap;html=1;" vertex="1" parent="1">
          <mxGeometry x="110" y="680" width="170" height="60" as="geometry" />
        </mxCell>
        <mxCell id="07N-WNuUkgZrdGRl9rMo-18" value="" style="edgeStyle=orthogonalEdgeStyle;rounded=0;orthogonalLoop=1;jettySize=auto;html=1;" edge="1" parent="1" source="07N-WNuUkgZrdGRl9rMo-15" target="07N-WNuUkgZrdGRl9rMo-16">
          <mxGeometry relative="1" as="geometry" />
        </mxCell>
        <mxCell id="07N-WNuUkgZrdGRl9rMo-15" value="&lt;font style=&quot;font-size: 14px;&quot;&gt;Laptop&lt;/font&gt;" style="rounded=0;whiteSpace=wrap;html=1;" vertex="1" parent="1">
          <mxGeometry x="560" y="680" width="160" height="60" as="geometry" />
        </mxCell>
        <mxCell id="07N-WNuUkgZrdGRl9rMo-19" value="" style="edgeStyle=orthogonalEdgeStyle;rounded=0;orthogonalLoop=1;jettySize=auto;html=1;" edge="1" parent="1" source="07N-WNuUkgZrdGRl9rMo-16" target="07N-WNuUkgZrdGRl9rMo-14">
          <mxGeometry relative="1" as="geometry" />
        </mxCell>
        <mxCell id="07N-WNuUkgZrdGRl9rMo-20" value="" style="edgeStyle=orthogonalEdgeStyle;rounded=0;orthogonalLoop=1;jettySize=auto;html=1;" edge="1" parent="1" source="07N-WNuUkgZrdGRl9rMo-16" target="07N-WNuUkgZrdGRl9rMo-17">
          <mxGeometry relative="1" as="geometry">
            <Array as="points">
              <mxPoint x="425" y="760" />
              <mxPoint x="425" y="760" />
            </Array>
          </mxGeometry>
        </mxCell>
        <mxCell id="07N-WNuUkgZrdGRl9rMo-16" value="&lt;font style=&quot;font-size: 14px;&quot;&gt;Ardunio Uno&amp;nbsp;&lt;/font&gt;" style="rounded=0;whiteSpace=wrap;html=1;" vertex="1" parent="1">
          <mxGeometry x="340" y="680" width="160" height="60" as="geometry" />
        </mxCell>
        <mxCell id="zTGeTQ_52CyC5Jfx9P0F-4" value="" style="edgeStyle=orthogonalEdgeStyle;rounded=0;orthogonalLoop=1;jettySize=auto;html=1;" edge="1" parent="1" source="07N-WNuUkgZrdGRl9rMo-17" target="zTGeTQ_52CyC5Jfx9P0F-2">
          <mxGeometry relative="1" as="geometry" />
        </mxCell>
        <mxCell id="07N-WNuUkgZrdGRl9rMo-17" value="&lt;font style=&quot;font-size: 14px;&quot;&gt;GSM SIM 800 C Module&lt;/font&gt;" style="rounded=0;whiteSpace=wrap;html=1;" vertex="1" parent="1">
          <mxGeometry x="340" y="820" width="170" height="70" as="geometry" />
        </mxCell>
        <mxCell id="07N-WNuUkgZrdGRl9rMo-22" value="" style="endArrow=classic;html=1;rounded=0;entryX=1;entryY=0.5;entryDx=0;entryDy=0;exitX=-0.011;exitY=0.493;exitDx=0;exitDy=0;exitPerimeter=0;" edge="1" parent="1" target="07N-WNuUkgZrdGRl9rMo-17" source="07N-WNuUkgZrdGRl9rMo-23">
          <mxGeometry width="50" height="50" relative="1" as="geometry">
            <mxPoint x="610" y="855" as="sourcePoint" />
            <mxPoint x="652" y="884" as="targetPoint" />
            <Array as="points" />
          </mxGeometry>
        </mxCell>
        <mxCell id="zTGeTQ_52CyC5Jfx9P0F-3" value="" style="edgeStyle=orthogonalEdgeStyle;rounded=0;orthogonalLoop=1;jettySize=auto;html=1;" edge="1" parent="1" source="07N-WNuUkgZrdGRl9rMo-23" target="07N-WNuUkgZrdGRl9rMo-17">
          <mxGeometry relative="1" as="geometry" />
        </mxCell>
        <mxCell id="07N-WNuUkgZrdGRl9rMo-23" value="&lt;font style=&quot;font-size: 14px;&quot;&gt;12V Power Supply&lt;/font&gt;" style="text;html=1;align=center;verticalAlign=middle;resizable=0;points=[];autosize=1;strokeColor=none;fillColor=none;" vertex="1" parent="1">
          <mxGeometry x="565" y="840" width="140" height="30" as="geometry" />
        </mxCell>
        <mxCell id="zTGeTQ_52CyC5Jfx9P0F-6" value="" style="edgeStyle=orthogonalEdgeStyle;rounded=0;orthogonalLoop=1;jettySize=auto;html=1;" edge="1" parent="1" source="zTGeTQ_52CyC5Jfx9P0F-2" target="07N-WNuUkgZrdGRl9rMo-13">
          <mxGeometry relative="1" as="geometry" />
        </mxCell>
        <mxCell id="zTGeTQ_52CyC5Jfx9P0F-2" value="&lt;font style=&quot;font-size: 14px;&quot;&gt;GPS Module&lt;/font&gt;" style="rounded=0;whiteSpace=wrap;html=1;" vertex="1" parent="1">
          <mxGeometry x="340" y="930" width="170" height="70" as="geometry" />
        </mxCell>
      </root>
    </mxGraphModel>
  </diagram>
</mxfile>
